HIERARCHY
ROOT SpineBase
{
  OFFSET 0.000000 0.000000 0.000000
  CHANNELS 6 Xposition Yposition Zposition Zrotation Xrotation Yrotation
  JOINT SpineMid
  {
    OFFSET 0.000000 29.022661 0.000000
    CHANNELS 3 Zrotation Xrotation Yrotation
    JOINT SpineShoulder
    {
      OFFSET 0.154125 21.613975 -0.581016
      CHANNELS 3 Zrotation Xrotation Yrotation
      JOINT Neck
      {
        OFFSET 0.086866 7.170470 -0.467106
        CHANNELS 3 Zrotation Xrotation Yrotation
        JOINT Head
        {
          OFFSET -3.626674 10.381646 0.215739
          CHANNELS 3 Zrotation Xrotation Yrotation
          End Site
          {
            OFFSET 0 0 0
          }
        }
      }
      JOINT ShoulderLeft
      {
        OFFSET -15.882067 -4.829301 5.553369
        CHANNELS 3 Zrotation Xrotation Yrotation
        JOINT ElbowLeft
        {
          OFFSET -1.570279 -25.107424 -0.227874
          CHANNELS 3 Zrotation Xrotation Yrotation
          JOINT WristLeft
          {
            OFFSET -0.986364 -19.219782 -5.733903
            CHANNELS 3 Zrotation Xrotation Yrotation
            JOINT HandLeft
            {
              OFFSET 1.016589 -6.444609 0.616677
              CHANNELS 3 Zrotation Xrotation Yrotation
              JOINT HandTipLeft
              {
                OFFSET 0.242169 -6.833931 -2.501349
                CHANNELS 3 Zrotation Xrotation Yrotation
                End Site
                {
                  OFFSET 0 0 0
                }
              }
              JOINT ThumbLeft
              {
                OFFSET -2.379868 -0.978146 -2.543323
                CHANNELS 3 Zrotation Xrotation Yrotation
                End Site
                {
                  OFFSET 0 0 0
                }
              }
            }
          }
        }
      }
      JOINT ShoulderRight
      {
        OFFSET 14.043342 -2.534522 -7.614342
        CHANNELS 3 Zrotation Xrotation Yrotation
        JOINT ElbowRight
        {
          OFFSET 6.927901 -23.454362 0.803564
          CHANNELS 3 Zrotation Xrotation Yrotation
          JOINT WristRight
          {
            OFFSET 1.657243 -20.369941 -1.818953
            CHANNELS 3 Zrotation Xrotation Yrotation
            JOINT HandRight
            {
              OFFSET 0.151216 -6.497812 -0.228044
              CHANNELS 3 Zrotation Xrotation Yrotation
              JOINT HandTipRight
              {
                OFFSET 0.859919 -6.308310 0.090050
                CHANNELS 3 Zrotation Xrotation Yrotation
                End Site
                {
                  OFFSET 0 0 0
                }
              }
              JOINT ThumbRight
              {
                OFFSET 3.702192 0.653553 -1.039014
                CHANNELS 3 Zrotation Xrotation Yrotation
                End Site
                {
                  OFFSET 0 0 0
                }
              }
            }
          }
        }
      }
    }
  }
  JOINT HipLeft
  {
    OFFSET -4.959588 0.356148 -0.837571
    CHANNELS 3 Zrotation Xrotation Yrotation
    JOINT KneeLeft
    {
      OFFSET 0.160650 -28.544687 4.239056
      CHANNELS 3 Zrotation Xrotation Yrotation
      JOINT AnkleLeft
      {
        OFFSET 4.837491 -32.063807 4.934104
        CHANNELS 3 Zrotation Xrotation Yrotation
        JOINT FootLeft
        {
          OFFSET 2.696383 -6.587037 -6.751481
          CHANNELS 3 Zrotation Xrotation Yrotation
          End Site
          {
            OFFSET 0 0 0
          }
        }
      }
    }
  }
  JOINT HipRight
  {
    OFFSET 5.617227 1.519093 -5.391945
    CHANNELS 3 Zrotation Xrotation Yrotation
    JOINT KneeRight
    {
      OFFSET 7.440788 -26.096498 2.263133
      CHANNELS 3 Zrotation Xrotation Yrotation
      JOINT AnkleRight
      {
        OFFSET 5.087580 -34.533397 4.402494
        CHANNELS 3 Zrotation Xrotation Yrotation
        JOINT FootRight
        {
          OFFSET -2.330245 -6.288809 -5.921738
          CHANNELS 3 Zrotation Xrotation Yrotation
          End Site
          {
            OFFSET 0 0 0
          }
        }
      }
    }
  }
}
MOTION
Frames: 9
Frame Time: 0.033333
-36.241625 69.493932 345.356336 -0.000000 0.000000 23.296697 -0.000000 0.000000 -23.296697 -0.000000 0.000000 0.000000 -0.000000 0.000000 0.000000 0.000000 0.000000 0.000000 -0.000000 0.000000 0.000000 -0.000000 0.000000 0.000000 -0.000000 0.000000 0.000000 -0.000000 0.000000 0.000000 0.000000 0.000000 0.000000 0.000000 0.000000 0.000000 -0.000000 0.000000 0.000000 -0.000000 0.000000 0.000000 -0.000000 0.000000 0.000000 -0.000000 0.000000 0.000000 0.000000 0.000000 0.000000 0.000000 0.000000 0.000000 -0.000000 0.000000 -23.296697 -0.000000 0.000000 0.000000 -0.000000 0.000000 0.000000 0.000000 0.000000 0.000000 -0.000000 0.000000 -23.296697 -0.000000 0.000000 0.000000 -0.000000 0.000000 0.000000 0.000000 0.000000 0.000000
-36.372582 69.203130 345.709681 -0.012011 0.000971 23.540011 0.010623 -0.005687 -23.540010 -0.000000 0.000000 0.000000 -0.000000 0.000000 0.000000 0.000000 0.000000 0.000000 0.494305 0.888287 -0.063888 0.782218 -1.859303 -0.244428 -1.495251 3.637033 0.754453 -0.917164 2.041199 0.167107 0.000000 0.000000 0.000000 0.000000 0.000000 0.000000 -0.000000 0.000000 0.000000 -0.000000 0.000000 0.000000 -0.859599 0.594870 0.048475 0.859142 -0.595531 -0.039547 0.000000 0.000000 0.000000 0.000000 0.000000 0.000000 0.010623 -0.005687 -23.540010 0.985082 0.348399 0.200993 -6.586236 -1.485945 5.126040 0.000000 0.000000 0.000000 0.010623 -0.005687 -23.540010 -0.000000 0.000000 0.000000 1.349852 -0.159362 -1.217055 0.000000 0.000000 0.000000
-36.468548 68.952905 346.015147 -0.037010 -0.017994 23.817927 0.041124 0.001516 -23.817933 -0.000000 0.000000 0.000000 -0.000000 0.000000 0.000000 0.000000 0.000000 0.000000 0.870533 1.549556 -0.116634 1.310172 -3.104884 -0.389478 -2.579014 6.596477 1.398919 -1.396857 3.125694 0.130710 0.000000 0.000000 0.000000 0.000000 0.000000 0.000000 -1.289908 0.739242 0.183135 2.225666 -0.854252 -0.245938 -2.449494 1.345978 0.194438 1.221539 -2.460640 -0.244752 0.000000 0.000000 0.000000 0.000000 0.000000 0.000000 -0.709320 0.956568 -23.967798 2.813113 0.075700 0.532696 -12.187002 -3.365102 9.411655 0.000000 0.000000 0.000000 0.041124 0.001516 -23.817933 -0.771937 0.283577 -0.054796 2.895255 0.242701 -2.139813 0.000000 0.000000 0.000000
-36.529523 68.743257 346.272734 -0.074881 -0.056685 24.129475 0.091511 0.021121 -24.129529 -0.000000 0.000000 0.000000 -0.000000 0.000000 0.000000 0.000000 0.000000 0.000000 1.128714 1.985267 -0.154048 1.675416 -3.816209 -0.486002 -3.318079 8.945113 1.932564 -1.450005 3.296322 -0.099487 0.000000 0.000000 0.000000 0.000000 0.000000 0.000000 -1.772432 1.067766 0.272523 2.997127 -1.146011 -0.330601 -3.179222 1.996279 0.264090 1.433193 -3.408044 -0.311575 0.000000 0.000000 0.000000 0.000000 0.000000 0.000000 -0.827123 1.361229 -24.319764 3.642789 0.030225 0.704394 -16.502459 -5.360397 12.609604 0.000000 0.000000 0.000000 0.091511 0.021121 -24.129529 -1.215548 0.359189 -0.098436 3.559055 1.681982 -2.857509 0.000000 0.000000 0.000000
-36.555507 68.574186 346.482442 -0.125553 -0.114960 24.473349 0.161897 0.052618 -24.473550 -0.000000 0.000000 0.000000 -0.000000 0.000000 0.000000 0.000000 0.000000 0.000000 1.268926 2.196662 -0.173337 1.930593 -4.035577 -0.561751 -3.746373 10.714560 2.353719 -1.104188 2.612417 -0.494292 0.000000 0.000000 0.000000 0.000000 0.000000 0.000000 -2.153344 1.372398 0.359548 3.537575 -1.345519 -0.395020 -3.565755 2.625082 0.307060 1.378894 -4.203891 -0.353461 0.000000 0.000000 0.000000 0.000000 0.000000 0.000000 -0.795439 1.721610 -24.684816 4.086969 -0.083668 0.809324 -19.415211 -7.230281 14.650406 0.000000 0.000000 0.000000 0.161897 0.052618 -24.473550 -1.667298 0.372788 -0.152616 3.700952 3.972283 -3.331233 0.000000 0.000000 0.000000
-36.546499 68.445692 346.644272 -0.189001 -0.192746 24.847919 0.252499 0.095481 -24.848447 -0.000000 0.000000 0.000000 -0.000000 0.000000 0.000000 0.000000 0.000000 0.000000 1.291255 2.184478 -0.173070 2.104228 -3.778323 -0.631178 -3.877322 11.911960 2.660748 -0.391068 1.121201 -1.013357 0.000000 0.000000 0.000000 0.000000 0.000000 0.000000 -2.436208 1.655395 0.443728 3.844712 -1.452311 -0.442294 -3.603257 3.227545 0.319159 1.057325 -4.859598 -0.377988 0.000000 0.000000 0.000000 0.000000 0.000000 0.000000 -0.616863 2.039225 -25.063248 4.145109 -0.272774 0.844185 -20.916933 -8.819109 15.562915 0.000000 0.000000 0.000000 0.252499 0.095481 -24.848447 -2.097163 0.317973 -0.215379 3.312127 7.046595 -3.529619 0.000000 0.000000 0.000000
-36.511848 68.310937 346.796373 -0.265331 -0.295723 25.305498 0.366277 0.153928 -25.306674 -0.000000 0.000000 0.000000 -0.000000 0.000000 0.000000 0.000000 0.000000 0.000000 1.346884 2.543870 -0.201364 2.233181 -3.513519 -0.686735 -3.661076 11.179337 2.701929 0.995252 0.614305 -1.578087 0.000000 0.000000 0.000000 0.000000 0.000000 0.000000 -2.372549 1.746074 0.473797 3.412168 -1.035074 -0.409213 -3.441773 4.711771 0.320608 0.297708 -4.842325 -0.230289 0.000000 0.000000 0.000000 0.000000 0.000000 0.000000 -0.281652 2.471344 -25.516219 3.946102 -0.732281 0.826490 -21.015084 -11.690484 14.429055 0.000000 0.000000 0.000000 1.167672 0.410593 -25.093707 -3.256306 -0.346342 -0.547193 3.015709 9.050507 -3.282978 0.000000 0.000000 0.000000
-36.440379 68.297122 346.790741 -0.356752 -0.370132 25.673111 0.481890 0.179027 -25.675016 -0.000000 0.000000 0.000000 -0.000000 0.000000 0.000000 0.000000 0.000000 0.000000 1.128414 1.768813 -0.138362 2.245408 -1.735152 -0.801369 -2.229906 10.594947 2.726173 1.682427 -2.207569 -2.406587 0.000000 0.000000 0.000000 0.000000 0.000000 0.000000 -2.557271 2.058303 0.570468 3.359977 -1.024711 -0.442190 -2.991340 6.072233 0.316188 0.652190 -5.548822 -0.078269 0.000000 0.000000 0.000000 0.000000 0.000000 0.000000 0.257939 2.549623 -25.841176 2.968170 -1.076384 0.650970 -19.094931 -14.084444 11.775536 0.000000 0.000000 0.000000 2.347420 0.532323 -25.234092 -4.450992 -1.280086 -0.929156 2.475727 10.484581 -2.767443 0.000000 0.000000 0.000000
-36.306337 68.328459 346.798296 -0.457726 -0.546848 26.196037 0.652122 0.288600 -26.199863 -0.000000 0.000000 0.000000 0.345649 0.923372 0.312223 0.000000 0.000000 0.000000 0.738425 0.726630 -0.056850 2.633948 -0.181933 -0.959971 -2.376517 10.840750 2.864539 3.639503 -8.153177 -2.917850 0.000000 0.000000 0.000000 0.000000 0.000000 0.000000 -2.791468 2.354224 0.662422 3.730885 -1.382194 -0.518846 -1.912973 5.727819 0.224383 -0.788777 -5.124977 -0.118328 0.000000 0.000000 0.000000 0.000000 0.000000 0.000000 0.974256 2.730115 -26.312750 1.588177 -1.450691 0.401867 -15.509531 -20.418830 5.117157 0.000000 0.000000 0.000000 3.788011 0.627927 -25.515891 -6.076091 -2.077895 -1.360905 -1.675370 21.202304 -1.378132 0.000000 0.000000 0.000000
